/* XPM */
static char *result[] = {
/* columns rows colors chars-per-pixel */
"30 30 6 1 ",
"  c black",
". c #400517",
"X c #700426",
"o c #990030",
"O c #B4B4B4",
"+ c white",
/* pixels */
"                              ",
"       ++++++++++++++++       ",
"     +++OOOOOOOOOOOOOO+++     ",
"    ++OO++++++++++++++OO++    ",
"    +OO+XXXXXXXXXXXXXX+OO+    ",
"   ++OO+XXXXXXXXXXXXXX+OO++   ",
"   +OO+XXXXoooooXXXXXXX+OO+   ",
"  ++OO+XXoooooooXXXXXXX+OO++  ",
"  +OO+XXXooooooXXXXXXXXX+OO+  ",
"  +OO+XXooooXXXXXXXXXXXX+OO+  ",
"  +OO+XXoooXXXXXXXXXXXXX+OO+  ",
"  +OO+XXoooXXXXXXXXXXXXX+OO+  ",
"  +OO+XXooXXXXXXXXXXXXXX+OO+  ",
"  +OO+XXoXXXXXXXXXXXXXXX+OO+  ",
"  +OO+XXXXXXXXXXXXXXX.XX+OO+  ",
"  +OO+XXXXXXXXXXXXXX..XX+OO+  ",
"  +OO+XXXXXXXXXXXXXX..XX+OO+  ",
"  +OO+XXXXXXXXXXXXX...XX+OO+  ",
"  +OO+XXXXXXXXXXXX....XX+OO+  ",
"  +OO+XXXXXXXXXXX.....XX+OO+  ",
"  +OO+XXXXXXXXXX......XX+OO+  ",
"  +OO+XXXXXXXX.......XXX+OO+  ",
"  ++OO+XXXXXX......XXXX+OO++  ",
"   +OO+XXXXX......XXXXX+OO+   ",
"   ++OO+XXXXXXXXXXXXXX+OO++   ",
"  +++OO+XXXXXXXXXXXXXX+OO+++  ",
"  +O++OO++++++++++++++OO++O+  ",
" ++O++++OOOOOOOOOOOOOO++++O++ ",
" +O++  ++++++++++++++++  ++O+ ",
" +++                      +++ "
};
