/* XPM */
static char *result[] = {
/* columns rows colors chars-per-pixel */
"30 30 6 1 ",
"  c black",
". c #400517",
"X c #700426",
"o c #990030",
"O c #B4B4B4",
"+ c white",
/* pixels */
"                              ",
"       ++++++++++++++++       ",
"     +++OOOOOOOOOOOOOO+++     ",
"    ++OO++++++++++++++OO++    ",
"    +OO+XXXXXXXXXXXXXX+OO+    ",
"   ++OO+XXXXXXXXXXXXXX+OO++   ",
"   +OO+XXXXX.........XX+OO+   ",
"  ++OO+XXXXXX........XX+OO++  ",
"  +OO+XXXXXXXX........XX+OO+  ",
"  +OO+XXXXXXXXXX......XX+OO+  ",
"  +OO+XXXXXXXXXXXXX...XX+OO+  ",
"  +OO+XXXXXXXXXXXXX...XX+OO+  ",
"  +OO+XXXXXXXXXXXXXX..XX+OO+  ",
"  +OO+XXXXXXXXXXXXXX.XXX+OO+  ",
"  +OO+XXXXXXXXXXXXXXXXXX+OO+  ",
"  +OO+XXXXXXXXXXXXXXXXXX+OO+  ",
"  +OO+XXXXXXXXXXXXXXXXXX+OO+  ",
"  +OO+XXoXXXXXXXXXXXXXXX+OO+  ",
"  +OO+XXooXXXXXXXXXXXXXX+OO+  ",
"  +OO+XXoooXXXXXXXXXXXXX+OO+  ",
"  +OO+XXooooXXXXXXXXXXXX+OO+  ",
"  +OO+XXoooooooXXXXXXXXX+OO+  ",
"  ++OO+XXoooooooXXXXXXX+OO++  ",
"   +OO+XXXoooooXXXXXXXX+OO+   ",
"   ++OO+XXXXXXXXXXXXXX+OO++   ",
"  +++OO+XXXXXXXXXXXXXX+OO+++  ",
"  +O++OO++++++++++++++OO++O+  ",
" ++O++++OOOOOOOOOOOOOO++++O++ ",
" +O++  ++++++++++++++++  ++O+ ",
" +++                      +++ "
};
