/* XPM */
static char *result[] = {
/* columns rows colors chars-per-pixel */
"30 30 6 1 ",
"  c black",
". c #400517",
"X c #700426",
"o c #990030",
"O c #B4B4B4",
"+ c white",
/* pixels */
"                              ",
"       ++++++++++++++++       ",
"     +++OOOOOOOOOOOOOO+++     ",
"    ++OO++++++++++++++OO++    ",
"    +OO+XXXXXXXXXXXXXX+OO+    ",
"   ++OO+XXXXXXXXXXXXXX+OO++   ",
"   +OO+XXXXXXXXXXXXXXXX+OO+   ",
"  ++OO+XXXXXXXXXXXXXXXX+OO++  ",
"  +OO+XXXXXXXXXXXXXXXXXX+OO+  ",
"  +OO+XXXoXXXXXXXXX...XX+OO+  ",
"  +OO+XXooXXXXXXXXX....X+OO+  ",
"  +OO+XoooXXXXXXXXX....X+OO+  ",
"  +OO+XoooXXXXXXXXX....X+OO+  ",
"  +OO+XoooXXXXXXXXX....X+OO+  ",
"  +OO+XooXXXXXXXXXX....X+OO+  ",
"  +OO+XoooXXXXXXXXX....X+OO+  ",
"  +OO+XoooXXXXXXXXX....X+OO+  ",
"  +OO+XoooXXXXXXXXX...XX+OO+  ",
"  +OO+XoooXXXXXXXXXX..XX+OO+  ",
"  +OO+XXooXXXXXXXXXX..XX+OO+  ",
"  +OO+XXXoXXXXXXXXXX.XXX+OO+  ",
"  +OO+XXXXXXXXXXXXXXXXXX+OO+  ",
"  ++OO+XXXXXXXXXXXXXXXX+OO++  ",
"   +OO+XXXXXXXXXXXXXXXX+OO+   ",
"   ++OO+XXXXXXXXXXXXXX+OO++   ",
"  +++OO+XXXXXXXXXXXXXX+OO+++  ",
"  +O++OO++++++++++++++OO++O+  ",
" ++O++++OOOOOOOOOOOOOO++++O++ ",
" +O++  ++++++++++++++++  ++O+ ",
" +++                      +++ "
};
