/* XPM */
static char *result[] = {
/* columns rows colors chars-per-pixel */
"30 30 6 1 ",
"  c black",
". c #400517",
"X c #700426",
"o c #990030",
"O c #B4B4B4",
"+ c white",
/* pixels */
"                              ",
"       ++++++++++++++++       ",
"     +++OOOOOOOOOOOOOO+++     ",
"    ++OO++++++++++++++OO++    ",
"    +OO+XXXXXXXXXXXXXX+OO+    ",
"   ++OO+XXXXXXXXXXXXXX+OO++   ",
"   +OO+XXX.....XXXXXXXX+OO+   ",
"  ++OO+XX.....XXXXXXXXX+OO++  ",
"  +OO+XXX....XXXXXXXXXXX+OO+  ",
"  +OO+XX....XXXXXXXXXXXX+OO+  ",
"  +OO+XX...XXXXXXXXXXXXX+OO+  ",
"  +OO+XX...XXXXXXXXXXXXX+OO+  ",
"  +OO+XX..XXXXXXXXXXXXXX+OO+  ",
"  +OO+XX.XXXXXXXXXXXXXXX+OO+  ",
"  +OO+XXXXXXXXXXXXXXXXXX+OO+  ",
"  +OO+XXXXXXXXXXXXXXXXXX+OO+  ",
"  +OO+XXXXXXXXXXXXXoooXX+OO+  ",
"  +OO+XXXXXXXXXXXXXoooXX+OO+  ",
"  +OO+XXXXXXXXXXXXooooXX+OO+  ",
"  +OO+XXXXXXXXXXXXooooXX+OO+  ",
"  +OO+XXXXXXXXXXXoooooXX+OO+  ",
"  +OO+XXXXXXXXXXooooooXX+OO+  ",
"  ++OO+XXXXXXXXXoooooXX+OO++  ",
"   +OO+XXXXXXXXoooooXXX+OO+   ",
"   ++OO+XXXXXXXXXXXXXX+OO++   ",
"  +++OO+XXXXXXXXXXXXXX+OO+++  ",
"  +O++OO++++++++++++++OO++O+  ",
" ++O++++OOOOOOOOOOOOOO++++O++ ",
" +O++  ++++++++++++++++  ++O+ ",
" +++                      +++ "
};
