/* XPM */
static char *result[] = {
/* columns rows colors chars-per-pixel */
"30 30 6 1 ",
"  c black",
". c #400517",
"X c #700426",
"o c #990030",
"O c #B4B4B4",
"+ c white",
/* pixels */
"                              ",
"       ++++++++++++++++       ",
"     +++OOOOOOOOOOOOOO+++     ",
"    ++OO++++++++++++++OO++    ",
"    +OO+XXXXXXXXXXXXXX+OO+    ",
"   ++OO+XXXXXXXXXXXXXX+OO++   ",
"   +OO+XXXXXXXooooXXXXX+OO+   ",
"  ++OO+XXXXXXXXoooooXXX+OO++  ",
"  +OO+XXXXXXXXXXooooXXXX+OO+  ",
"  +OO+XXXXXXXXXXXoooXXXX+OO+  ",
"  +OO+XXXXXXXXXXXooooXXX+OO+  ",
"  +OO+XXXXXXXXXXXXoooXXX+OO+  ",
"  +OO+XXXXXXXXXXXXoooXXX+OO+  ",
"  +OO+XXXXXXXXXXXXoooXXX+OO+  ",
"  +OO+XXXXXXXXXXXXXooXXX+OO+  ",
"  +OO+XXXXXXXXXXXXXXXXXX+OO+  ",
"  +OO+XXX.XXXXXXXXXXXXXX+OO+  ",
"  +OO+XXX..XXXXXXXXXXXXX+OO+  ",
"  +OO+XXX..XXXXXXXXXXXXX+OO+  ",
"  +OO+XXX...XXXXXXXXXXXX+OO+  ",
"  +OO+XXX....XXXXXXXXXXX+OO+  ",
"  +OO+XXX......XXXXXXXXX+OO+  ",
"  ++OO+XXX.....XXXXXXXX+OO++  ",
"   +OO+XXXX....XXXXXXXX+OO+   ",
"   ++OO+XXXXXXXXXXXXXX+OO++   ",
"  +++OO+XXXXXXXXXXXXXX+OO+++  ",
"  +O++OO++++++++++++++OO++O+  ",
" ++O++++OOOOOOOOOOOOOO++++O++ ",
" +O++  ++++++++++++++++  ++O+ ",
" +++                      +++ "
};
