/* XPM */
static char *_218b3d9492c44a2b1ea36ff72d16c54EkeOJFy4rYTTxE23[] = {
/* columns rows colors chars-per-pixel */
"30 30 2 1 ",
"  c black",
". c white",
/* pixels */
"..............................",
"..            ..            ..",
". .           ..           . .",
".  ........................  .",
".  .                      .  .",
".  .                      .  .",
".  .                      .  .",
".  .                      .  .",
".  .                      .  .",
".  .                      .  .",
".  .                      .  .",
".  .                      .  .",
".  .                      .  .",
".  .                      .  .",
"....                      ....",
"....                      ....",
".  .                      .  .",
".  .                      .  .",
".  .                      .  .",
".  .                      .  .",
".  .                      .  .",
".  .                      .  .",
".  .                      .  .",
".  .                      .  .",
".  .                      .  .",
".  .                      .  .",
".  ........................  .",
". .           ..           . .",
"..            ..            ..",
".............................."
};
