/* XPM */
static char *_2bb6e62b2dd4504af2e8bd4a56c0746Xki6G5anIAxVhLSI[] = {
/* columns rows colors chars-per-pixel */
"30 30 6 1 ",
"  c None",
". c black",
"X c #ED1C24",
"o c #B4B4B4",
"O c #99D9EA",
"+ c white",
/* pixels */
"                              ",
"                              ",
"          ..........          ",
"         ..OOOOOOOO..         ",
"        ..O..OOOOOOO..        ",
"        .OO.OOOOOOOOO.        ",
"       ..O.OOOOOOOOOO..       ",
"       .OO.OOOOOOOOOOO.       ",
"       .OOOOOOOOOOOOOO.       ",
"       .OOOOOOOOOOOOOO.       ",
"       .OOOOOOOOOOOOOO.       ",
"       .OOOOOOOOOOOOOO.       ",
"       ...OOOOOOOOOO...       ",
"     ....................     ",
"   ...ooooo+++++++++oooo...   ",
"   .oooo+++...++...+++oooo.   ",
"  ..ooo++++.X.++.X.+++++oo..  ",
"  ..ooo++++.X.++.X.+++++oo..  ",
"  .oo++...+.X.++...+...++oo.  ",
"  .o++.  .+.X.++++++.  .++o.  ",
"  ....   .+...++++++.   ....  ",
"        ..++++++++++..        ",
"       ..o+++....++++..       ",
"      ..oo++..  ..++++..      ",
"      .oo++..    ..++++.      ",
"     ..o++..      ..+++..     ",
"     ..o++..      ..+++..     ",
"     ..o+..        ..++..     ",
"      ....          ....      ",
"                              "
};
