/* XPM */
static char *d2ed219f8ada4cebfe7b31cbba0da7b4bk0obCzfq7SOR3o8[] = {
/* columns rows colors chars-per-pixel */
"30 30 5 1 ",
"  c None",
". c black",
"X c #990030",
"o c #ED1C24",
"O c #FFC20E",
/* pixels */
"                              ",
"                              ",
"  .....        ....           ",
"  .OOO..     ...XX...         ",
"  ...OO..  ...XXXXXX...       ",
"    ..OO....XXXX..XXXX..      ",
"     ..OOOXXXX..  ..XXX.      ",
"      .OOXXXX.      .XX.      ",
"      .XXXXXX........XX.      ",
"      ..XXXXXXXXXXXXXX..      ",
"      .X.XooooooooooX.X.      ",
"      .XX.XooooooooX.XX.      ",
"      .XoX.XooooooX.XoX.      ",
"      .XooX.XooooX.XooX.      ",
"      .XoooX.XooX.XoooX.      ",
"      .XooooX.XX.XooooX.      ",
"      .XoooooX..XoooooX.      ",
"      .XoooooX..XoooooX.      ",
"      .XooooX.XX.XooooX.      ",
"      .XoooX.XooX.XoooX.      ",
"      .XooX.XooooX.XooX.      ",
"      .XoX.XooooooX.XoX.      ",
"      .XX.XooooooooX.XX.      ",
"      .X.XooooooooooX.X.      ",
"      ..XooooooooooooX..      ",
"      ...XXXXXXXXXXXX...      ",
"        ..............        ",
"                              ",
"                              ",
"                              "
};
