/* XPM */
static char *_f0325cf02e14c80aa8161fecedd4db83d06syjHq6H3ykI0[] = {
/* columns rows colors chars-per-pixel */
"30 30 9 1 ",
"  c None",
". c black",
"X c #700426",
"o c #464646",
"O c #990030",
"+ c #B4B4B4",
"@ c #99D9EA",
"# c #BBE5F0",
"$ c white",
/* pixels */
"                              ",
"            XXXXXX            ",
"           XXXXXXXX           ",
"          XXXOOOOXXX          ",
"         XXXOOOOOOXXX         ",
"        XXXOOOOOOOOXXX        ",
"       XXXOOOOOOOOOOXXX       ",
"       XXOOOOOOOOOOOOXX       ",
"       ooXOOOOOOOOOOXoo       ",
"      oo+XXXXXXXXXXXX+oo      ",
"      o++++++++++++++++o      ",
"     oo+$$$$$$$$$$$$$$+oo     ",
"     o+$$$$$$....$$$$$$+o     ",
"     o+$$$$...@@...$$$$+o     ",
"     o+$$$..@@@###..$$$+o     ",
"     o+$$$.@@@##@@@.$$$+o     ",
"    ooo$$$.@@@#@@@@.$$$ooo    ",
"    o$$$$$..###@@@..$$$$$o    ",
"    oo$$$$+...@@...+$$$$oo    ",
"     o$+$$$++....++$$$+$o     ",
"     o+++$$$$++++$$$$+++o     ",
"    oooo++$$$$$$$$$$++oooo    ",
"   ooXXo++++oooooo++++oXXoo   ",
"  ooXOOooooooXXXXooooooOOXoo  ",
"  oXOOoo   ooXOOXoo   ooOOXo  ",
"  oXOoo     oXOOXo     ooOXo  ",
" ooXOo      oXOOXo      oOXoo ",
" oXOOo      oXOOXo      oOOXo ",
" oXOoo      ooOOoo      ooOXo ",
" oooo        oooo        oooo "
};
