/* XPM */
static char *result[] = {
/* columns rows colors chars-per-pixel */
"30 30 7 1 ",
"  c black",
". c #990030",
"X c #ED1C24",
"o c #B4B4B4",
"O c #99D9EA",
"+ c white",
"@ c None",
/* pixels */
"@@@@@@@@@@@@@@@@+@@@@@@@@@@@@@",
"@@@@@@@@@@@@@@@@@@@@@@@@@@@@@@",
"@@@@@@@@@++@@@@@@@@@@@@@@@@@@@",
"@@@@@@@@@@@+@@@@+@@@@@@@@@@@@@",
"@@@@@@@@@@@@@@++++@@@@@@@@@@@@",
"@@@@@@@@@@@@@@+@@@@@@@@@@@@@@@",
"@@@@@@@ @@@@@@+@@@@@@@@@@@@@@@",
"@@@@@   ..@@@@@@@    @@@@@@@@@",
"@@@@  O    @@@@@ oooo  @@@@@@@",
"@@@@    OOO..@.@  ooo   @@@@@@",
"@@@@  O OOO O O..ooo+oo @@@@@@",
"@@@@ O OOOOOOOOOO o++ooo @@@@@",
"@@@@  O OOOOOOOOO oo++oo @@@@@",
"@@@@ OOOOOOOOOOOO  o++ooo @@@@",
"@@@@     OOOOOO  oo++++o @@@@@",
"@@@@ oooo OOO  oo++++oo  @@@@@",
"@@@  oooo O  oo++  ++  @@@@@@@",
"@@@@ ooo+o  oo+++ X + @@@@@@@@",
"@@@@  o+oooo++ ++   ++ @@@@@@@",
"@@@@ oo++++o   +++++++     @@@",
"@@@@@ oo+++++ X +++++++++    @",
"@@@@@@ooo++++ X  ++++++++++  @",
"@@@@@@ oooo  +   ++   ++++++ @",
"@@@@@@@    @ + ++  @      + @@",
"@@@@@@@   @@@ +++ @@@@@    @@@",
"@@@@@@@@@@@@  +++ @@@@@@@@@@@@",
"@@@@@@@@@@@@  o+  @@@@@@@@@@@@",
"@@@@@@@@@@@@ o++  @@@@@@@@@@@@",
"@@@@@@@@@@@  oo+ @@@@@@@@@@@@@",
"@@@@@@@@@@@@ o+  @@@@@@@@@@@@@"
};
