/* XPM */
static char *result[] = {
/* columns rows colors chars-per-pixel */
"30 30 6 1 ",
"  c black",
". c #ED1C24",
"X c #B4B4B4",
"o c #99D9EA",
"O c white",
"+ c None",
/* pixels */
"++++++++++++++++++++++++++++++",
"++++++++++++++++++++++++++++++",
"++++++++++++++++++++++++++++++",
"++++++++++    ++++++++++++++++",
"+++++++++  oo ++++++++++++++++",
"++++++++  o    +++++++++++++++",
"++++++++ oo oo  ++++++++++++++",
"+++++++  o oooo ++++++++++++++",
"+++++++ oo oooo  +++++++++++++",
"+++++++ oooooooo   +   +++++++",
"+++++++ oooooooooo   o +++++++",
"   ++++ oooooooooooooo ++++   ",
" X  +++ oooooooooooooo +++  X ",
" XX  ++   oooooooooo   ++  XX ",
" XOX  +                +  XOX ",
"  OOX   XXXXXXXXXXXXXX   XOO  ",
"+  OOXXXXXXOOOOOOOOOXXXXXOO  +",
"++  OOOXOOO   OO   OOOXOOO  ++",
"+++   OOOOO . OO . OOOOO   +++",
"+++++     O . OO   O     +++++",
"+++++++++ O . OOOOOO +++++++++",
"+++++++++ O   OOOOOO +++++++++",
"++++++++  OOOOOOOOOO  ++++++++",
"+++++++  XOOO    OOOO  +++++++",
"++++++  XXOO  ++  OOOO  ++++++",
"++++++ XXOO  ++++  OOOO ++++++",
"+++++  XOO  ++++++  OOO  +++++",
"+++++  XO  ++++++++  OO  +++++",
"++++++    ++++++++++    ++++++",
"++++++++++++++++++++++++++++++"
};
