/* XPM */
static char *result[] = {
/* columns rows colors chars-per-pixel */
"30 30 7 1 ",
"  c black",
". c #990030",
"X c #ED1C24",
"o c #B4B4B4",
"O c #99D9EA",
"+ c white",
"@ c None",
/* pixels */
"@@@@@@@@@@@@@@@@@@@@@@@@@@@@@@",
"@@@@@@@@@@@@@@@@@@@@@@@@@@@@@@",
"@@@@@@@@@@@@@@@@@@@@@@@@@@@@@@",
"@@@@@@@@@@@@@@@@@@@@@@@@@@@@@@",
"@@@@@@@@@@@@@@@@@@@@@@@@@@@@@@",
"@@@@@@@@@@@@@@@@@@@@@@@@@@@@@@",
"@@@@@@@@@@@@@@@@@@@@@@@@@@@@@@",
"@@@@@@@@@@@@@@@@@@@@@@@@@@@@@@",
"@@@@@@@@@@@@@@@@@@@@@@@@@@@@@@",
"@@@@@@@@@@@@@@@@@@@@@@@@@@@@@@",
"@@+@@@@@@@@@@@@@@@@@@@@@@@@@@@",
"@++@@@@@@@@@       @@@@@@@@@@@",
"@++@@@@@@@   ooooo  @@@@@@@@@@",
"@@@@@++@@ ooo+++++o @@@@@@@@@@",
"@@@@@+@@@ ooo+o+++o @@   @@@@@",
"@@@@@++@@  ooooo+++    +   @@@",
"@@@@@@+@@@.    oo+++++++++  @@",
"@++@@@@@@..OOO o+   +++++++  @",
"++@@@@.....OOO o+ X +++oo+++  ",
"@@@@.......OOO o+   +++ oo+++ ",
"@@@.......OOOO o+++++++ ooooo ",
"@@......O.OOOO o+     + ooooo ",
"@.. ..O.OOOOOO o+ XXX ++   oo ",
"... O. .OOOOOO o+     +++     ",
"...  .O  O     oo+++++++++  @@",
"....  OOO  ooooo+++    oo++  @",
"@....   O ooo+o+++o ..  oo++ @",
"@@.......  oooooooo ..@@     @",
"@@@@......   ooooo  @@@@@@  @@",
"@@@@@@......       @@@@@@@@@@@"
};
