/* XPM */
static char *result[] = {
/* columns rows colors chars-per-pixel */
"30 30 7 1 ",
"  c black",
". c #990030",
"X c #ED1C24",
"o c #B4B4B4",
"O c #99D9EA",
"+ c white",
"@ c None",
/* pixels */
"@@@@@@@@@@@@@@@@@+@@@@@@@@@@@@",
"@@@@@@@@@@@@@@@@@++@@@@@++@@@@",
"@@@@@@@@@@@@@@@@@@+@@@@@+++@@@",
"@@@@@@@@@@    @@@@@@@@@@@@@@@@",
"@@@@@@@@@  OO @@@@@@@@@@@@@@@@",
"@@@@@@@@  O   .@@@@@+++@@@@@@@",
"@@@@@@@@ OO OO .@@@++@++@@@@@@",
"@@@@@@@  O OOOO.@@@@@@@@@@@@@@",
"@@@@@@@ OO OOOO  @@@@@@@@@@@@@",
"@@@@@@    OOOOOO  .@    @@@@@@",
"@@@@@  oo  OOOOOOO   oo  @@@@@",
"@@@@@ oooo OOOOOOOO oooo @@@@@",
"@@@@  oooo OOOOOOOO oooo  @@@@",
"@@@@ oo++o OOOOOOOO o++oo @@@@",
"@@@@ oo+oo          oo+oo @@@@",
"@@@@ oo++oooooooooooo++oo @@@@",
"@@@@ oo+++o++++++++o+++oo @@@@",
"@@@@ oo++++   ++   ++++oo @@@@",
"@@@@  ooo++ X ++ X ++ooo  @@@@",
"@@@@@     + X ++   +     @@@@@",
"@@@@@@@@@ + X ++++++ @@@@@@@@@",
"@@@@@@@@@ +   ++++++ @@@@@@@@@",
"@@@@@@@@  ++++++++++  @@@@@@@@",
"@@@@@@@  o+++    ++++  @@@@@@@",
"@@@@@@  oo++  @@  ++++  @@@@@@",
"@@@@@@ oo++  @@@@  ++++ @@@@@@",
"@@@@@  o++  @@@@@@  +++  @@@@@",
"@@@@@  o+  @@@@@@@@  ++  @@@@@",
"@@@@@@    @@@@@@@@@@    @@@@@@",
"@@@@@@@@@@@@@@@@@@@@@@@@@@@@@@"
};
