/* XPM */
static char *result[] = {
/* columns rows colors chars-per-pixel */
"30 30 7 1 ",
"  c black",
". c #990030",
"X c #ED1C24",
"o c #B4B4B4",
"O c #99D9EA",
"+ c white",
"@ c None",
/* pixels */
"@@@@@@@@@@@@@@@@@@@@@@@@@@@@@@",
"@@@@@@@@@@@@@@@@@@@@@@@@@@@@@@",
"@@@@@@@@@@@@@@@@@@@@@@@@@@@@@@",
"@@@@@@@@@@@@@@@@@@@@@@@@@@@@@@",
"@@@@@@@@@@@@@@@@@@@@@@@@@@@@@@",
"@@@@@@@@@@@@@@@@@@@@@@@@@@@@@@",
"@@@@@@@@@@@@@@@@@@@@@@@@@@@@@@",
"@@@@@@@@@@@@@@@@@@@@@@@@@@@@@@",
"@@@@@@@@@@@@@@@@@@@@@@@@@@@@@@",
"@@@@@@@@@@@@@@@@@@@@@@@@@@@@@@",
"@@+@@@@@@@@@@@@@@@@@@@@@@@@@@@",
"@++@@@@@@@@@        @@@@@@@@@@",
"@++@@@@@@@   oooooo  @@@@@@  @",
"@@@@@++@@ ooo++++++o @@@  +++ ",
"@@@@@+@@@ ooo+oo+++o @@  ++++ ",
"@@@@@++@@  oooooo+++    ++++  ",
"@@@@@@+@@@      oo+++++++++  @",
"@++@@@@@@..OOO  o+   +++++  @@",
"++@@@@@@@..OOO  o+ X ++++  @@@",
"@@@@@@@@..OOOO  o+   +++  @@@@",
"@@@@@....OOOOO  o+++++++ @@@@@",
"@@@...OOOOOOOO  o+     +  @@@@",
"@@@ O OOOOOOOO  o+ XXX ++  @@@",
"@@@ O  OOOOOOO  o+     +++  @@",
"@@@  OO  O      oo+++++++++  @",
"@@@@  OOO  oooooo+++    oo++  ",
"@@@@@   O ooo+oo+++o @@  oo++ ",
"@@@@@@@@@  ooooooooo @@@@     ",
"@@@@@@@@@@   oooooo  @@@@@@  @",
"@@@@@@@@@@@@        @@@@@@@@@@"
};
