/* XPM */
static char *result[] = {
/* columns rows colors chars-per-pixel */
"30 30 10 1 ",
"  c black",
". c #464646",
"X c #ED1C24",
"o c #A8E61D",
"O c #FFF200",
"+ c #7C138A",
"@ c #B4B4B4",
"# c #F5E49C",
"$ c #FFF9BD",
"% c None",
/* pixels */
"%%%%%%%%%%%%%%%%%%%%%%%%%%%%%%",
"%%%%%%%%              %%%%%%%%",
"%%      oooooooooooooo      %%",
"%% oooooo  oooooooo  oooooo %%",
"%% o   ooo  oooooo  ooo   o %%",
"% Xo % oo..   oo   ..oo % oX %",
"% XX % oo.   oooo   .oo % XX %",
"%    % oo.   oooo   .oo %    %",
"%%%%%% oo.   oooo   .oo %%%%%%",
"%   %% oo.   oooo   .oo %%   %",
"  @  % oo.   oooo   .oo %  @  ",
" @@@ % ooo   oooo   ooo % @@@ ",
"  @@  % oooooooooooooo %  @@  ",
"%  @@   ooooo oooooooo   @@  %",
"%%  @@   ooooo   oooo   @@  %%",
"%%%  @@   oooooooooo   @@  %%%",
"%%      %% oooooooo %%      %%",
"%  oo  %%%% oooooo %%%%  oo  %",
"% oooo       oooo       oooo %",
"%    oo++++++++++++++++oo    %",
"%%%       ++++++$O$+       %%%",
"%%%%%%%%%  +++++$O$  %%%%%%%%%",
"%%%%%%%%%  ++++++#+  %%%%%%%%%",
"%%%%%%%%% ++++++++++ %%%%%%%%%",
"%%%%%%%%  ++++  ++++  %%%%%%%%",
"%%%%%%%% ++++    ++++ %%%%%%%%",
"%%%%%%%% ++++ %% ++++ %%%%%%%%",
"%%%%%%%% +++ %%%% +++ %%%%%%%%",
"%%%%%%%%     %%%%     %%%%%%%%",
"%%%%%%%%%%%%%%%%%%%%%%%%%%%%%%"
};
