/* XPM */
static char *_fb78bcf0afd4961b39cba3008560f6cXc92v2b8M9zd34lZ[] = {
/* columns rows colors chars-per-pixel */
"30 30 2 1 ",
"  c white",
". c black",
/* pixels */
"..............................",
"..............................",
"..............................",
"..............................",
"..............................",
"..............................",
".......................  .....",
"..........   .........  . ....",
"......... .. ......... .. ....",
"......... ....................",
"..............................",
"..............................",
"..............................",
"...   ........................",
"... . ........................",
"... .. .......................",
"...... .......................",
"....... ......................",
"..............................",
"................... ..........",
"..................    ........",
".................. .. ........",
"..... ............ ... .......",
"....   .......................",
"... .. .......................",
"..  .. .......................",
".. ...........................",
".. ...........................",
"..............................",
".............................."
};
