/* XPM */
static char *_2ad52a0e5f340bc8e86f1ff59a6384fWXCQCAlR0GExEY1P[] = {
/* columns rows colors chars-per-pixel */
"30 30 7 1 ",
"  c white",
". c black",
"X c black",
"o c black",
"O c black",
"+ c black",
"@ c black",
/* pixels */
"+++++X+O+X+XX+XoO+XXX++++++X++",
"+++++++X+O++++@@X++++X++XO++++",
"++X+XOX++O++++O+  +XX++O++++++",
"++X+++OO+X++O++   ++O++XXX++++",
"++.++ +X++OX+X  XO ++o+O+X++++",
"++++ + +++++++ @+++ +X+OX+++++",
"+X. +X++++++@o+++O@@++@@oo@+++",
"+++XX+XOoXOo@X++++OoX+oX@+O+++",
"OXX+++OX@@++++++XX+Xo++++  +++",
"++OOX+++Oo++XO++++++++oX   +++",
"+++Xo@O++++++OXoXXOXX@O+++++++",
"+++Oo@o@+++++o@@++++o@O+X+O+++",
"+++X+++@++++++++OOOO+X+++OO+++",
"XO@ooXXo+++o++OXo.+XX+X+XoO+++",
"++@O+++OXo+XO@++oO+++XX+OO++++",
"XO++O++@ @+O+@oX+Oo+Oo+++o++++",
"o+O++@@O   XO+++XOXo@O+++oO+++",
"++X+Xo+  X +X+++X+++@OX++O++++",
"+@@++++ ++X+OO+OOO+o@oo+++++++",
"XooOO++ X++O+X+X+X+X@X++++++++",
"@@++++Xo++XX+++oOX+OO++X @@+++",
"ooXo+++++OO+X++X+++XO++o  @O++",
"O++XO+Xo+XO+o@++++++OX+ X ++++",
"X++++O@@++++O@OXX+OX+++ ++ +++",
"OXo@O++@OXO+O+++oO++++X+++ +++",
"++O@X+X  +X+@oXO@@+O+++X++++++",
"++++XOO   @++XX+OXXOX+++++++++",
"X+O+++ X+ +++X++++++++++++++++",
"o+@O+  ++++++++++X++++++++++++",
"X+@o+++OX++O+++++O++++++++++++"
};
